<svg width="16" height="16" viewBox="0 0 16 16" fill="none" xmlns="http://www.w3.org/2000/svg">
    <g clip-path="url(#clip0_813_12)">
        <path d="M16 4.431C16 4.26465 16 4.11342 16 3.94707C15.9849 3.59925 15.9698 3.2363 15.9093 2.88847C15.8489 2.54064 15.7432 2.20794 15.577 1.89036C15.4108 1.57278 15.2144 1.28544 14.9575 1.04348C14.7007 0.786389 14.4136 0.58979 14.1114 0.423439C13.7941 0.257087 13.4618 0.15123 13.1143 0.0907382C12.7668 0.0302467 12.4193 0 12.0567 0C11.8905 0 11.7394 0 11.5732 0C11.3768 0 11.1955 0 10.9991 0H6.75354H5.00094C4.80453 0 4.62323 0 4.42682 0C4.26062 0 4.10954 0 3.94334 0C3.85269 0 3.76204 9.22802e-07 3.6865 0.0151238C3.42965 0.0302467 3.1577 0.0453695 2.90085 0.0907382C2.644 0.136107 2.38716 0.21172 2.14542 0.302458C2.06988 0.332703 1.97923 0.378074 1.90368 0.408319C1.66195 0.529302 1.45042 0.68053 1.2389 0.846882C1.17847 0.907373 1.10293 0.967862 1.04249 1.02835C0.785648 1.28544 0.589236 1.57278 0.423041 1.87524C0.256847 2.19282 0.151087 2.52552 0.0906525 2.87335C0.0302181 3.22117 0.0151086 3.569 0 3.93195C0 4.0983 0 4.24953 0 4.41588C0 4.61248 0 4.79395 0 4.99055V7.6068V10.9943C0 11.1909 0 11.3724 0 11.569C0 11.7354 0 11.8866 0 12.0529C0.0151086 12.4008 0.0302181 12.7637 0.0906525 13.1115C0.151087 13.4594 0.256847 13.7921 0.423041 14.1096C0.589236 14.4272 0.785648 14.7146 1.04249 14.9565C1.29934 15.2136 1.5864 15.4102 1.88857 15.5766C2.20585 15.7429 2.53824 15.8488 2.88574 15.9093C3.23324 15.9698 3.58074 16 3.94334 16C4.10954 16 4.26062 16 4.42682 16C4.62323 16 4.80453 16 5.00094 16H10.9991C11.1955 16 11.3768 16 11.5732 16C11.7394 16 11.8905 16 12.0567 16C12.4042 15.9849 12.7668 15.9698 13.1143 15.9093C13.4618 15.8488 13.7941 15.7429 14.1114 15.5766C14.4287 15.4102 14.7158 15.2136 14.9575 14.9565C15.2144 14.6994 15.4108 14.4121 15.577 14.1096C15.7432 13.7921 15.8489 13.4594 15.9093 13.1115C15.9698 12.7637 16 12.4159 16 12.0529C16 11.8866 16 11.7354 16 11.569C16 11.3724 16 11.1909 16 10.9943V4.99055C16 4.80907 16 4.6276 16 4.431Z" fill="url(#paint0_linear_813_12)"/>
        <path d="M8.64771 4.46124C7.89698 4.46124 7.23912 4.85886 6.87323 5.455C7.06923 5.63936 7.25191 5.83771 7.41969 6.04845C7.72653 5.9799 8.04559 5.94374 8.3731 5.94374C8.93976 5.94374 9.48112 6.05199 9.97765 6.24895C9.82528 5.60423 9.52957 5.01492 9.12603 4.51649C8.97245 4.48036 8.81231 4.46124 8.64771 4.46124Z" fill="url(#paint1_linear_813_12)"/>
        <path d="M10.7282 6.54177C10.7282 5.55733 10.0445 4.73258 9.12603 4.51649C9.52957 5.01492 9.82528 5.60423 9.97765 6.24895C10.2407 6.35331 10.4912 6.48257 10.7262 6.63382C10.7276 6.6033 10.7282 6.57262 10.7282 6.54177Z" fill="url(#paint2_linear_813_12)"/>
        <path d="M6.87323 5.455C6.71396 5.7145 6.61002 6.01163 6.57783 6.32994C6.84513 6.2088 7.12684 6.11388 7.41969 6.04845C7.25191 5.83771 7.06923 5.63936 6.87323 5.455Z" fill="url(#paint3_linear_813_12)"/>
        <path d="M4.13598 11.3027C4.05972 10.98 4.01936 10.6434 4.01936 10.2975C4.01936 8.53306 5.06895 7.01378 6.57783 6.32994C6.61002 6.01163 6.71396 5.7145 6.87323 5.455C6.20235 4.82392 5.37554 4.35673 4.45675 4.11739C3.31588 5.23189 2.60767 6.78735 2.60767 8.50823C2.60767 9.25107 2.73963 9.96309 2.9814 10.6221C3.32606 10.9048 3.71489 11.1356 4.13598 11.3027Z" fill="url(#paint4_linear_813_12)"/>
        <path d="M4.45675 4.11739C5.37554 4.35673 6.20235 4.82392 6.87323 5.455C7.23912 4.85886 7.89698 4.46124 8.64771 4.46124C8.81231 4.46124 8.97245 4.48036 9.12603 4.51649C8.41743 3.6413 7.37634 3.04635 6.19494 2.92382C5.54716 3.22016 4.95988 3.62589 4.45675 4.11739Z" fill="url(#paint5_linear_813_12)"/>
        <path d="M6.19494 2.92382C6.04558 2.90833 5.89398 2.90039 5.74052 2.90039C4.66394 2.90039 3.67863 3.29115 2.91867 3.93857C2.96014 3.93766 3.00171 3.9372 3.04339 3.9372C3.53166 3.9372 4.0053 3.9998 4.45675 4.11739C4.95988 3.62589 5.54716 3.22016 6.19494 2.92382Z" fill="url(#paint6_linear_813_12)"/>
        <path d="M4.13598 11.3027C3.71489 11.1356 3.32606 10.9048 2.9814 10.6221C3.55267 12.1794 4.737 13.4408 6.24198 14.1139L6.24743 14.1101L6.25709 14.1033C5.20446 13.5168 4.42043 12.5063 4.13598 11.3027Z" fill="url(#paint7_linear_813_12)"/>
        <path fill-rule="evenodd" clip-rule="evenodd" d="M6.25709 14.1033C6.31266 14.1343 6.36898 14.1641 6.42601 14.1926C6.36416 14.1674 6.30281 14.1411 6.24198 14.1139L6.24743 14.1101L6.25709 14.1033Z" fill="url(#paint8_linear_813_12)"/>
        <path fill-rule="evenodd" clip-rule="evenodd" d="M11.0025 9.41927C12.6855 8.96491 13.6816 7.23219 13.2272 5.54913C13.0719 4.97368 12.7671 4.47855 12.3659 4.09423C12.4519 6.01232 11.2024 7.80105 9.27176 8.32226C8.77943 8.45517 8.28389 8.49456 7.80403 8.45129C8.57293 9.32842 9.80036 9.74379 11.0025 9.41927Z" fill="url(#paint9_linear_813_12)"/>
        <path fill-rule="evenodd" clip-rule="evenodd" d="M13.7004 9.37643C13.6111 10.9996 12.351 12.3609 10.6829 12.5279C8.8383 12.7126 7.19324 11.367 7.00855 9.52239C6.96126 9.05007 7.01431 8.59083 7.15037 8.16584C7.64681 9.85529 9.28901 11.0066 11.105 10.8248C12.1754 10.7176 13.0948 10.1685 13.7004 9.37643Z" fill="url(#paint10_linear_813_12)"/>
        <path fill-rule="evenodd" clip-rule="evenodd" d="M8.61732 13.4978C7.1558 12.5252 6.26216 10.801 6.43793 8.93074C6.49027 8.37383 6.63336 7.84731 6.85121 7.36443C5.80817 7.81536 5.03668 8.80631 4.92284 10.0175C4.75663 11.7861 6.05561 13.3546 7.82422 13.5208C8.0947 13.5462 8.3605 13.5374 8.61732 13.4978Z" fill="url(#paint11_linear_813_12)"/>
    </g>
    <defs>
        <linearGradient id="paint0_linear_813_12" x1="2.7654" y1="-0.906004" x2="13.6483" y2="15.9906" gradientUnits="userSpaceOnUse">
            <stop stop-color="#1B1B1B"/>
            <stop offset="1" stop-color="#0A3452"/>
        </linearGradient>
        <linearGradient id="paint1_linear_813_12" x1="2.8269" y1="7.29121" x2="10.5923" y2="5.53924" gradientUnits="userSpaceOnUse">
            <stop stop-color="#128FDA"/>
            <stop offset="1" stop-color="#25AFE6"/>
        </linearGradient>
        <linearGradient id="paint2_linear_813_12" x1="2.8269" y1="7.29121" x2="10.5923" y2="5.53924" gradientUnits="userSpaceOnUse">
            <stop stop-color="#128FDA"/>
            <stop offset="1" stop-color="#25AFE6"/>
        </linearGradient>
        <linearGradient id="paint3_linear_813_12" x1="2.8269" y1="7.29121" x2="10.5923" y2="5.53924" gradientUnits="userSpaceOnUse">
            <stop stop-color="#128FDA"/>
            <stop offset="1" stop-color="#25AFE6"/>
        </linearGradient>
        <linearGradient id="paint4_linear_813_12" x1="2.8269" y1="7.29121" x2="10.5923" y2="5.53924" gradientUnits="userSpaceOnUse">
            <stop stop-color="#128FDA"/>
            <stop offset="1" stop-color="#25AFE6"/>
        </linearGradient>
        <linearGradient id="paint5_linear_813_12" x1="2.8269" y1="7.29121" x2="10.5923" y2="5.53924" gradientUnits="userSpaceOnUse">
            <stop stop-color="#128FDA"/>
            <stop offset="1" stop-color="#25AFE6"/>
        </linearGradient>
        <linearGradient id="paint6_linear_813_12" x1="2.8269" y1="7.29121" x2="10.5923" y2="5.53924" gradientUnits="userSpaceOnUse">
            <stop stop-color="#128FDA"/>
            <stop offset="1" stop-color="#25AFE6"/>
        </linearGradient>
        <linearGradient id="paint7_linear_813_12" x1="2.8269" y1="7.29121" x2="10.5923" y2="5.53924" gradientUnits="userSpaceOnUse">
            <stop stop-color="#128FDA"/>
            <stop offset="1" stop-color="#25AFE6"/>
        </linearGradient>
        <linearGradient id="paint8_linear_813_12" x1="2.8269" y1="7.29121" x2="10.5923" y2="5.53924" gradientUnits="userSpaceOnUse">
            <stop stop-color="#128FDA"/>
            <stop offset="1" stop-color="#25AFE6"/>
        </linearGradient>
        <linearGradient id="paint9_linear_813_12" x1="9.09117" y1="6.85767" x2="13.1947" y2="9.30309" gradientUnits="userSpaceOnUse">
            <stop stop-color="#30C0EC"/>
            <stop offset="1" stop-color="#0C86D6"/>
        </linearGradient>
        <linearGradient id="paint10_linear_813_12" x1="8.88995" y1="9.77961" x2="12.4705" y2="13.2145" gradientUnits="userSpaceOnUse">
            <stop stop-color="#30C0EC"/>
            <stop offset="1" stop-color="#0C86D6"/>
        </linearGradient>
        <linearGradient id="paint11_linear_813_12" x1="6.07568" y1="9.591" x2="9.41152" y2="11.8431" gradientUnits="userSpaceOnUse">
            <stop stop-color="#30C0EC"/>
            <stop offset="1" stop-color="#0C86D6"/>
        </linearGradient>
        <clipPath id="clip0_813_12">
            <rect width="16" height="16" fill="white"/>
        </clipPath>
    </defs>
</svg>
